<?xml version="1.0" encoding="utf-8"?>
<!-- Generator: Adobe Illustrator 21.1.0, SVG Export Plug-In . SVG Version: 6.00 Build 0)  -->
<svg version="1.1" id="Calque_1" xmlns="http://www.w3.org/2000/svg" xmlns:xlink="http://www.w3.org/1999/xlink" x="0px" y="0px"
	 viewBox="0 0 198.8 185.8" style="enable-background:new 0 0 198.8 185.8;" xml:space="preserve">
<style type="text/css">
	.st0{fill:#F2C15C;}
	.st1{fill:#FEC552;}
	.st2{fill:#FCB017;}
	.st3{fill:#924B2C;}
	.st4{fill:#D91F27;}
	.st5{fill:#F2D437;}
	.st6{fill:#AFBF37;}
	.st7{fill:#7D371A;}
	.st8{fill:#BA2025;}
	.st9{fill:#7D371A;stroke:#7D371A;stroke-width:8;stroke-miterlimit:10;}
</style>
<g>
	<polygon class="st0" points="98.5,73.8 106.4,0 101.1,74.1 122.1,2.8 103.6,74.8 137,8.4 106,75.9 150.7,16.6 108.1,77.4 
		162.6,27.1 109.9,79.3 172.6,39.5 111.3,81.5 180.1,53.5 112.4,83.9 185,68.7 112.9,86.5 187.2,84.5 113.1,89.1 186.5,100.4 
		112.7,91.7 182.9,115.9 111.9,94.2 176.7,130.5 110.7,96.5 167.9,143.8 109,98.5 107.1,100.3 104.8,101.6 102.3,102.5 99.8,103 
		97.2,103 94.6,102.5 92.1,101.6 89.9,100.3 87.9,98.5 29,143.8 86.3,96.5 20.3,130.5 85,94.2 14,115.9 84.2,91.7 10.5,100.4 
		83.9,89.1 9.8,84.5 84,86.5 11.9,68.7 84.6,83.9 16.8,53.5 85.6,81.5 24.4,39.5 87,79.3 34.3,27.1 88.8,77.4 46.3,16.6 91,75.9 
		59.9,8.4 93.3,74.8 74.8,2.8 95.9,74.1 90.5,0 	"/>
	<path class="st1" d="M68.7,50c7.4-6.1,18-9.5,29.8-9.5c11.7,0,22.3,3.4,29.8,9.5c7.5,6.2,11.7,14.9,12.1,25.4H56.6
		C57,64.9,61.2,56.1,68.7,50z"/>
	<path class="st2" d="M122.4,136.8H74.5c-7.2,0-13.5-3.7-17.2-9.3c21.3-0.2,42.2-0.2,63.6,0c0,0,0,0,0,0c0.8,0,1.5-0.7,1.5-1.5
		c0-0.9-0.7-1.6-1.5-1.6c-22-0.2-43.4-0.2-65.3,0c-0.9-2-1.5-4.2-1.7-6.5h1h87.3h0.8C142.1,128.5,133.2,136.8,122.4,136.8z"/>
	<path class="st3" d="M106,108.9l4,4c0.1,0.1,0.2,0.2,0.3,0.2c0,0,0.1,0,0.1,0c0.1,0,0.2,0.1,0.2,0.1c0,0,0.1,0,0.1,0
		c0.1,0,0.1,0.1,0.2,0.1c0,0,0.1,0,0.1,0c0.1,0,0.1,0,0.2,0c0,0,0,0,0,0c0.1,0,0.1,0,0.2,0c0.1,0,0.1,0,0.2,0c0.1,0,0.1,0,0.2,0
		c0.1,0,0.1,0,0.2,0c0.1,0,0.1-0.1,0.2-0.1c0,0,0.1,0,0.1-0.1c0.1-0.1,0.2-0.1,0.3-0.2l4.4-4.1h23.5v5.3H56.8v-5.3H106z"/>
	<path class="st4" d="M56.9,101.9L56.9,101.9c0-1.7,1.4-3.1,3.1-3.1h31.5c1.7,0,3.1,1.4,3.1,3.1l0,0c0,1.7-1.4,3.1-3.1,3.1H60.1
		C58.3,105.1,56.9,103.7,56.9,101.9z"/>
	<path class="st5" d="M111.4,109.1l-3.2-3.3L95.7,93.1l-0.1-0.1c0.1-0.1,0.1-0.2,0.2-0.2l0.9-1c0.4-0.5,0.9-0.5,1.1-0.5
		c0,0,0,0,0.1,0c0.1,0,0.4,0.1,0.6,0.3c0.1,0.1,0.3,0.3,0.4,0.5l1.8,3.8c0.8,1.7,2.5,2.8,4.3,2.9c1.9,0.1,3.6-0.9,4.6-2.5l1.3-2.1
		c0.3-0.5,0.7-0.6,0.9-0.6c0.1,0,0.1,0,0.2,0c0.1,0,0.3,0,0.5,0.1c0,0,0.1,0,0.1,0c0,0,0,0,0.1,0c0.1,0,0.2,0.1,0.2,0.2l3.1,2.5
		c1.1,0.9,2.5,1.3,3.8,1.1c1.4-0.2,2.6-0.9,3.4-2l3.7-5c0.4-0.5,0.9-0.5,1.1-0.5c0.2,0,0.7,0.1,1.1,0.6l0.9,1.3L111.4,109.1z"/>
	<path class="st4" d="M136,98.8c1.7,0,3.1,1.4,3.1,3.1l0,0c0,1.7-1.4,3.1-3.1,3.1h-7.5c-1.7,0-3.1-1.4-3.1-3.1l0,0
		c0-1.7,1.4-3.1,3.1-3.1H136z"/>
	<path class="st6" d="M145.9,84.8c-0.1,0.2-0.5,0.9-1.5,0.7c-1.1-0.2-2.2-0.1-3.1,0.3c0,0-0.1,0-0.1,0c-0.1,0-0.2,0.1-0.3,0.2
		c0,0-0.1,0-0.1,0.1c-0.2,0.1-0.3,0.2-0.5,0.3c0,0-0.1,0.1-0.1,0.1c0,0-0.1,0.1-0.1,0.1c0,0-0.1,0.1-0.1,0.1c0,0-0.1,0.1-0.1,0.1
		c-0.8,0.8-1.4,1.8-1.5,3c0,0.1,0,0.2,0,0.3c0,0.1,0,0.1,0,0.2c0,0.2,0,0.3,0,0.5l0.1,1.9l0.1,0.9c0,0.7-0.4,1.1-0.7,1.2
		c-0.1,0.1-0.2,0.1-0.2,0.1c-0.2,0.1-0.8,0.2-1.3-0.2c-0.1-0.1-0.2-0.2-0.3-0.3l-1-1.5l-1.2-1.9c0,0,0,0,0,0l0,0l-1.7-2.6l0,0
		c-0.1-0.2-0.2-0.3-0.4-0.5c-0.9-1.1-2.3-1.7-3.7-1.8c-1.6,0-3.2,0.7-4.2,2l-3.7,5c-0.2,0.3-0.5,0.5-0.9,0.5c-0.1,0-0.2,0-0.3,0
		c-0.3,0-0.5-0.1-0.7-0.3l-2.3-1.9l-0.8-0.7c-0.1,0-0.1-0.1-0.2-0.1c-1-0.7-2.2-1.1-3.4-1c-0.2,0-0.4,0-0.5,0.1
		c-0.5,0.1-1,0.3-1.4,0.5c0,0-0.1,0-0.1,0.1c-0.1,0-0.1,0.1-0.2,0.1c-0.1,0.1-0.2,0.1-0.3,0.2c0,0,0,0,0,0c-0.6,0.4-1.1,0.9-1.4,1.5
		l-1.3,2.1c-0.4,0.6-1,0.7-1.2,0.6c-0.2,0-0.8-0.1-1.1-0.8l-1.8-3.8c-0.7-1.6-2.2-2.6-3.9-2.8c-1.7-0.2-3.4,0.5-4.5,1.8l-0.9,1
		c-0.1,0.1-0.2,0.2-0.2,0.2c0,0-0.1,0-0.1,0.1c-0.1,0-0.1,0.1-0.2,0.1c0,0,0,0,0,0l0,0c0,0,0,0,0,0l0,0c0,0,0,0,0,0c0,0,0,0,0,0
		c-0.1,0-0.1,0-0.1,0c0,0-0.1,0-0.1,0c0,0,0,0,0,0c-0.1,0-0.3,0-0.4,0c0,0-0.1,0-0.1,0c0,0-0.1,0-0.1,0c-0.1,0-0.2-0.1-0.2-0.1
		c0,0,0,0,0,0c-0.1-0.1-0.2-0.1-0.2-0.2l-2-2.5c-1-1.3-2.6-2-4.3-1.8c-1.6,0.1-3.1,1.1-4,2.5l-3.8,6.5c-0.4,0.6-1,0.7-1.2,0.7
		c-0.2,0-0.8-0.1-1.1-0.8l-1.6-3.4c-0.8-1.6-2.3-2.7-4.1-2.9c-0.2,0-0.3,0-0.5,0c0,0,0,0-0.1,0c-0.1,0-0.2,0-0.3,0
		c-0.1,0-0.2,0-0.4,0c-0.1,0-0.2,0-0.3,0c-0.1,0-0.2,0-0.3,0.1c-0.1,0-0.2,0.1-0.3,0.1c-0.1,0-0.2,0.1-0.3,0.1
		c-0.1,0-0.2,0.1-0.3,0.1c-0.1,0-0.2,0.1-0.3,0.1c-0.1,0-0.2,0.1-0.2,0.1c-0.1,0.1-0.2,0.1-0.3,0.2c-0.1,0.1-0.1,0.1-0.2,0.2
		c-0.1,0.1-0.2,0.2-0.3,0.3c-0.1,0.1-0.1,0.1-0.2,0.2c-0.1,0.2-0.3,0.3-0.4,0.5l-3.3,4.4c-0.6,0.7-1.3,0.5-1.5,0.4
		c-0.2-0.1-0.9-0.4-0.8-1.4l0.3-3.5c0-0.2,0-0.4,0-0.5c0-0.1,0-0.1,0-0.2c0-0.1,0-0.2,0-0.3c0-0.1,0-0.2,0-0.3c0,0,0,0,0,0
		c-0.1-0.8-0.5-1.6-1-2.3c0,0,0,0,0,0c-0.1-0.1-0.2-0.2-0.3-0.3c0,0,0,0-0.1-0.1c-0.1-0.1-0.2-0.2-0.3-0.3c-0.1-0.1-0.1-0.1-0.2-0.2
		c0,0-0.1-0.1-0.1-0.1c-0.1-0.1-0.2-0.1-0.3-0.2c0,0-0.1,0-0.1-0.1c-1.1-0.7-2.4-0.9-3.7-0.6l-0.4,0.1c-1,0.2-1.4-0.5-1.5-0.7
		c-0.1-0.2-0.4-1,0.4-1.6l5.1-4.1h83.9l5.1,4.1C146.3,83.8,146,84.6,145.9,84.8z"/>
	<path class="st2" d="M128.2,60.4c-7.4-6.1-18-9.5-29.8-9.5s-22.3,3.4-29.8,9.5c-4.8,4-8.3,9.1-10.3,15h80
		C136.5,69.5,133.1,64.4,128.2,60.4z"/>
	<path class="st1" d="M120.9,127.6C120.8,127.6,120.8,127.6,120.9,127.6c-21.4-0.2-42.3-0.2-63.6,0c3.7,5.6,10.1,9.3,17.2,9.3h47.9
		c7.7,0,14.4-4.2,18-10.5h-18C122.2,127.1,121.6,127.6,120.9,127.6z"/>
	<path class="st7" d="M147.9,80.3l-3.8-3c0,0,0,0,0-0.1c0-24.2-18.4-40.5-45.6-40.5S52.9,53,52.8,77.2c0,0,0,0,0,0l-3.8,3
		c-1.9,1.5-2.4,4-1.4,6.1c1,2.1,3.1,3.2,5.4,2.8v18v7.2H52c-1,0-1.9,0.8-1.9,1.9c0,3.5,0.7,6.8,2.1,9.9l0.6,1.3
		c4.1,7.9,12.3,13.3,21.7,13.3h47.9c13.5,0,24.4-10.9,24.4-24.4c0-1-0.8-1.9-1.9-1.9h-0.9v-7.2V89.2c2.2,0.3,4.2-0.8,5.2-2.8
		C150.3,84.2,149.7,81.8,147.9,80.3z M68.7,50c7.4-6.1,18-9.5,29.8-9.5c11.7,0,22.3,3.4,29.8,9.5c7.5,6.2,11.7,14.9,12.1,25.4H56.6
		C57,64.9,61.2,56.1,68.7,50z M122.4,136.8H74.5c-7.2,0-13.5-3.7-17.2-9.3c21.3-0.2,42.2-0.2,63.6,0c0,0,0,0,0,0
		c0.8,0,1.5-0.7,1.5-1.5c0-0.9-0.7-1.6-1.5-1.6c-22-0.2-43.4-0.2-65.3,0c-0.9-2-1.5-4.2-1.7-6.5h1h87.3h0.8
		C142.1,128.5,133.2,136.8,122.4,136.8z M106,108.9l4,4c0.1,0.1,0.2,0.2,0.3,0.2c0,0,0.1,0,0.1,0c0.1,0,0.2,0.1,0.2,0.1
		c0,0,0.1,0,0.1,0c0.1,0,0.1,0.1,0.2,0.1c0,0,0.1,0,0.1,0c0.1,0,0.1,0,0.2,0c0,0,0,0,0,0c0.1,0,0.1,0,0.2,0c0.1,0,0.1,0,0.2,0
		c0.1,0,0.1,0,0.2,0c0.1,0,0.1,0,0.2,0c0.1,0,0.1-0.1,0.2-0.1c0,0,0.1,0,0.1-0.1c0.1-0.1,0.2-0.1,0.3-0.2l4.4-4.1h23.5v5.3H56.8
		v-5.3H106z M56.9,101.9L56.9,101.9c0-1.7,1.4-3.1,3.1-3.1h31.5c1.7,0,3.1,1.4,3.1,3.1l0,0c0,1.7-1.4,3.1-3.1,3.1H60.1
		C58.3,105.1,56.9,103.7,56.9,101.9z M111.4,109.1l-3.2-3.3L95.7,93.1l-0.1-0.1c0.1-0.1,0.1-0.2,0.2-0.2l0.9-1
		c0.4-0.5,0.9-0.5,1.1-0.5c0,0,0,0,0.1,0c0.1,0,0.4,0.1,0.6,0.3c0.1,0.1,0.3,0.3,0.4,0.5l1.8,3.8c0.8,1.7,2.5,2.8,4.3,2.9
		c1.9,0.1,3.6-0.9,4.6-2.5l1.3-2.1c0.3-0.5,0.7-0.6,0.9-0.6c0.1,0,0.1,0,0.2,0c0.1,0,0.3,0,0.5,0.1c0,0,0.1,0,0.1,0c0,0,0,0,0.1,0
		c0.1,0,0.2,0.1,0.2,0.2l3.1,2.5c1.1,0.9,2.5,1.3,3.8,1.1c1.4-0.2,2.6-0.9,3.4-2l3.7-5c0.4-0.5,0.9-0.5,1.1-0.5
		c0.2,0,0.7,0.1,1.1,0.6l0.9,1.3L111.4,109.1z M136,98.8c1.7,0,3.1,1.4,3.1,3.1l0,0c0,1.7-1.4,3.1-3.1,3.1h-7.5
		c-1.7,0-3.1-1.4-3.1-3.1l0,0c0-1.7,1.4-3.1,3.1-3.1H136z M145.9,84.8c-0.1,0.2-0.5,0.9-1.5,0.7c-1.1-0.2-2.2-0.1-3.1,0.3
		c0,0-0.1,0-0.1,0c-0.1,0-0.2,0.1-0.3,0.2c0,0-0.1,0-0.1,0.1c-0.2,0.1-0.3,0.2-0.5,0.3c0,0-0.1,0.1-0.1,0.1c0,0-0.1,0.1-0.1,0.1
		c0,0-0.1,0.1-0.1,0.1c0,0-0.1,0.1-0.1,0.1c-0.8,0.8-1.4,1.8-1.5,3c0,0.1,0,0.2,0,0.3c0,0.1,0,0.1,0,0.2c0,0.2,0,0.3,0,0.5l0.1,1.9
		l0.1,0.9c0,0.7-0.4,1.1-0.7,1.2c-0.1,0.1-0.2,0.1-0.2,0.1c-0.2,0.1-0.8,0.2-1.3-0.2c-0.1-0.1-0.2-0.2-0.3-0.3l-1-1.5l-1.2-1.9
		c0,0,0,0,0,0l0,0l-1.7-2.6l0,0c-0.1-0.2-0.2-0.3-0.4-0.5c-0.9-1.1-2.3-1.7-3.7-1.8c-1.6,0-3.2,0.7-4.2,2l-3.7,5
		c-0.2,0.3-0.5,0.5-0.9,0.5c-0.1,0-0.2,0-0.3,0c-0.3,0-0.5-0.1-0.7-0.3l-2.3-1.9l-0.8-0.7c-0.1,0-0.1-0.1-0.2-0.1
		c-1-0.7-2.2-1.1-3.4-1c-0.2,0-0.4,0-0.5,0.1c-0.5,0.1-1,0.3-1.4,0.5c0,0-0.1,0-0.1,0.1c-0.1,0-0.1,0.1-0.2,0.1
		c-0.1,0.1-0.2,0.1-0.3,0.2c0,0,0,0,0,0c-0.6,0.4-1.1,0.9-1.4,1.5l-1.3,2.1c-0.4,0.6-1,0.7-1.2,0.6c-0.2,0-0.8-0.1-1.1-0.8l-1.8-3.8
		c-0.7-1.6-2.2-2.6-3.9-2.8c-1.7-0.2-3.4,0.5-4.5,1.8l-0.9,1c-0.1,0.1-0.2,0.2-0.2,0.2c0,0-0.1,0-0.1,0.1c-0.1,0-0.1,0.1-0.2,0.1
		c0,0,0,0,0,0l0,0c0,0,0,0,0,0l0,0c0,0,0,0,0,0c0,0,0,0,0,0c-0.1,0-0.1,0-0.1,0c0,0-0.1,0-0.1,0c0,0,0,0,0,0c-0.1,0-0.3,0-0.4,0
		c0,0-0.1,0-0.1,0c0,0-0.1,0-0.1,0c-0.1,0-0.2-0.1-0.2-0.1c0,0,0,0,0,0c-0.1-0.1-0.2-0.1-0.2-0.2l-2-2.5c-1-1.3-2.6-2-4.3-1.8
		c-1.6,0.1-3.1,1.1-4,2.5l-3.8,6.5c-0.4,0.6-1,0.7-1.2,0.7c-0.2,0-0.8-0.1-1.1-0.8l-1.6-3.4c-0.8-1.6-2.3-2.7-4.1-2.9
		c-0.2,0-0.3,0-0.5,0c0,0,0,0-0.1,0c-0.1,0-0.2,0-0.3,0c-0.1,0-0.2,0-0.4,0c-0.1,0-0.2,0-0.3,0c-0.1,0-0.2,0-0.3,0.1
		c-0.1,0-0.2,0.1-0.3,0.1c-0.1,0-0.2,0.1-0.3,0.1c-0.1,0-0.2,0.1-0.3,0.1c-0.1,0-0.2,0.1-0.3,0.1c-0.1,0-0.2,0.1-0.2,0.1
		c-0.1,0.1-0.2,0.1-0.3,0.2c-0.1,0.1-0.1,0.1-0.2,0.2c-0.1,0.1-0.2,0.2-0.3,0.3c-0.1,0.1-0.1,0.1-0.2,0.2c-0.1,0.2-0.3,0.3-0.4,0.5
		l-3.3,4.4c-0.6,0.7-1.3,0.5-1.5,0.4c-0.2-0.1-0.9-0.4-0.8-1.4l0.3-3.5c0-0.2,0-0.4,0-0.5c0-0.1,0-0.1,0-0.2c0-0.1,0-0.2,0-0.3
		c0-0.1,0-0.2,0-0.3c0,0,0,0,0,0c-0.1-0.8-0.5-1.6-1-2.3c0,0,0,0,0,0c-0.1-0.1-0.2-0.2-0.3-0.3c0,0,0,0-0.1-0.1
		c-0.1-0.1-0.2-0.2-0.3-0.3c-0.1-0.1-0.1-0.1-0.2-0.2c0,0-0.1-0.1-0.1-0.1c-0.1-0.1-0.2-0.1-0.3-0.2c0,0-0.1,0-0.1-0.1
		c-1.1-0.7-2.4-0.9-3.7-0.6l-0.4,0.1c-1,0.2-1.4-0.5-1.5-0.7c-0.1-0.2-0.4-1,0.4-1.6l5.1-4.1h83.9l5.1,4.1
		C146.3,83.8,146,84.6,145.9,84.8z"/>
	<path class="st8" d="M85.2,103h4.4c0.5,0,0.9-0.4,0.9-0.9c0-0.5-0.4-0.9-0.9-0.9h-4.4c-0.5,0-0.9,0.4-0.9,0.9
		C84.3,102.6,84.7,103,85.2,103z"/>
	<path class="st8" d="M62.3,103h20c0.5,0,0.9-0.4,0.9-0.9c0-0.5-0.4-0.9-0.9-0.9h-20c-0.5,0-0.9,0.4-0.9,0.9
		C61.4,102.6,61.8,103,62.3,103z"/>
	<path class="st8" d="M129.4,103h6.6c0.5,0,0.9-0.4,0.9-0.9c0-0.5-0.4-0.9-0.9-0.9h-6.6c-0.5,0-0.9,0.4-0.9,0.9
		C128.5,102.6,128.9,103,129.4,103z"/>
	<circle class="st7" cx="118.1" cy="53.3" r="2.3"/>
	<circle class="st7" cx="104.7" cy="63.5" r="2.3"/>
	<circle class="st7" cx="72.3" cy="63.5" r="2.3"/>
	<circle class="st7" cx="102.4" cy="49.1" r="2.3"/>
	<circle class="st7" cx="89.6" cy="55.6" r="2.3"/>
	<circle class="st7" cx="127.5" cy="65.8" r="2.3"/>
	<circle class="st7" cx="77.9" cy="49.9" r="2.3"/>
	<path class="st7" d="M132.7,124.5h-4.9c-0.9,0-1.5,0.7-1.5,1.5s0.7,1.5,1.5,1.5h4.9c0.9,0,1.5-0.7,1.5-1.5S133.6,124.5,132.7,124.5
		z"/>
	<g>
		<g>
			<path class="st9" d="M27.1,153.1l-6.6,0.1l0.1,16.8l-5.9,0.3l-0.1-16.9l-6.2,0.1L8,147.7l18.6-0.4L27.1,153.1z"/>
			<path class="st9" d="M36.2,170.2V169c-1,1-2.5,1.6-4.5,1.6c-1.3,0-2.5-0.4-3.6-1.1s-1.9-1.8-2.6-3.1c-0.6-1.3-0.9-2.7-0.9-4.1
				c0-1.5,0.3-2.8,1-4.1s1.6-2.3,2.7-3c1.1-0.8,2.3-1.1,3.5-1.1c2,0,3.4,0.5,4.2,1.6v-1.1h5.1l0.7,15.7H36.2z M35.3,164.3
				c0.5-0.5,0.7-1.2,0.7-2.1c0-0.8-0.3-1.5-0.8-2c-0.5-0.5-1.2-0.7-2-0.7c-0.8,0-1.4,0.3-1.9,0.8c-0.5,0.5-0.8,1.2-0.8,1.9
				c0,0.5,0.1,0.9,0.4,1.3c0.2,0.4,0.6,0.8,1,1.1c0.4,0.3,0.9,0.4,1.4,0.4C34.2,165.1,34.8,164.8,35.3,164.3z"/>
			<path class="st9" d="M54.8,159.9c-0.7-0.5-1.4-0.9-2-1.1c-0.6-0.2-1.3-0.4-2.2-0.4c-1.3,0-1.9,0.3-1.9,0.9c0,0.3,0.1,0.4,0.4,0.5
				c0.3,0.1,0.8,0.2,1.7,0.2c1.8,0.1,3.3,0.6,4.4,1.4c1.2,0.8,1.7,1.9,1.7,3.4c0,1-0.3,1.9-0.9,2.8c-0.6,0.9-1.5,1.5-2.6,2.1
				s-2.3,0.8-3.7,0.8c-1.3,0-2.6-0.2-3.9-0.7c-1.2-0.5-2.2-1.1-2.9-2l2.9-3.6c0.5,0.4,1.2,0.8,2,1c0.9,0.3,1.6,0.4,2.2,0.4
				c0.5,0,1-0.1,1.3-0.3c0.3-0.2,0.5-0.5,0.5-0.8c0-0.3-0.1-0.4-0.3-0.5c-0.2-0.1-0.7-0.1-1.5-0.2c-2-0.3-3.6-0.8-4.6-1.5
				c-1.1-0.8-1.6-1.7-1.6-3c0-1,0.3-1.9,0.9-2.7c0.6-0.8,1.5-1.5,2.5-2c1-0.5,2.2-0.7,3.4-0.7c1.2,0,2.4,0.2,3.7,0.7
				c1.3,0.4,2.2,1,2.9,1.7L54.8,159.9z"/>
			<path class="st9" d="M71.5,167.8c-0.6,0.9-1.3,1.6-2.2,2s-2,0.7-3.3,0.7c-1.8,0-3.2-0.4-4.1-1.2c-0.9-0.8-1.4-2.2-1.4-4.2
				c0-0.6,0-1.3,0.1-2.2l0.6-4.3l-2.4,0l-0.2-4.8l3.3-0.1l0.3-2.4l5.5-0.3l-0.3,2.5l3.1-0.1l0.6,4.9l-4.3,0l-0.5,3.8
				c0,0.1,0,0.3,0,0.5c0,0.6,0.2,1.1,0.5,1.5c0.3,0.4,0.8,0.6,1.3,0.6c0.8,0,1.5-0.5,2.1-1.4L71.5,167.8z"/>
			<path class="st9" d="M89,154l-4.5,15.5c-0.8,2.7-1.9,4.7-3.3,6c-1.4,1.3-3,1.9-4.9,1.9c-0.7,0-1.6-0.1-2.5-0.4
				c-0.9-0.2-1.8-0.6-2.6-0.9l2.3-5.8c0.2,0.3,0.6,0.6,1.3,0.9c0.7,0.3,1.2,0.5,1.6,0.5c0.6,0,1.1-0.2,1.6-0.5s0.7-0.8,1-1.4
				l-7.3-15.3l6.4-0.1l3,7.9l2-7.9L89,154z"/>
			<path class="st9" d="M104.9,158.4c0.7,0.6,1.2,1.3,1.6,2.2c0.4,0.9,0.6,1.9,0.6,3c0,4.5-3.3,6.8-9.8,6.8c-2.7,0-5.1-0.1-7-0.2
				v-21.4c0.9-0.4,2.1-0.8,3.6-1s2.8-0.3,4-0.3c2.2,0,3.9,0.5,5.3,1.6c1.4,1,2,2.5,2,4.3c0,2-0.9,3.3-2.6,4.1
				C103.5,157.6,104.2,157.9,104.9,158.4z M99.2,152.5c-0.4-0.3-1-0.5-1.6-0.5c-0.6,0-1,0.1-1.4,0.2l0,3.3c0.3,0.1,0.6,0.1,0.9,0.1
				c0.9,0,1.5-0.2,2-0.5c0.5-0.3,0.7-0.8,0.7-1.4C99.9,153.3,99.7,152.9,99.2,152.5z M100,164.6c0.5-0.5,0.8-1,0.8-1.6
				c0-0.7-0.3-1.3-0.9-1.7c-0.6-0.4-1.3-0.5-2.1-0.5c-0.6,0-1.2,0.1-1.6,0.4l0,3.8c0.2,0.1,0.5,0.2,0.8,0.2c0.3,0,0.6,0.1,0.9,0
				C98.8,165.3,99.5,165,100,164.6z"/>
			<path class="st9" d="M119,170.6v-1.2c-1.3,1-2.6,1.5-3.9,1.5c-2,0-3.6-0.7-4.6-2.2c-1-1.5-1.5-3.6-1.5-6.2l0-8h6.3l-0.1,7.2
				c0,0.9,0.1,1.7,0.5,2.2c0.3,0.5,0.8,0.8,1.5,0.8c0.7,0,1.2-0.2,1.5-0.7c0.3-0.5,0.4-1.2,0.4-2.2h0l0-7.3h6.2l0.1,15.9L119,170.6z
				"/>
			<path class="st9" d="M138.6,154.6c0.8,0.4,1.4,1,1.9,1.6l-2.1,4.8c-0.4-0.4-0.7-0.7-1.1-0.9c-0.4-0.2-0.7-0.3-1.2-0.3
				c-1.1,0-1.9,0.3-2.4,0.9c-0.5,0.6-0.7,1.5-0.8,2.8v6.6l-6.2,0.1l0.3-15.8l5.4-0.1l0.2,1.1c0.4-0.4,0.9-0.8,1.5-1s1.2-0.4,1.8-0.4
				C136.9,153.9,137.8,154.2,138.6,154.6z"/>
			<path class="st9" d="M158.2,154.4l-0.2,15.2c0,1-0.2,2.1-0.6,3.3c-0.4,1.2-1.2,2.4-2.4,3.4c-1.2,1-2.9,1.5-5.1,1.5
				c-1.7,0-3.3-0.4-4.6-1.1c-1.4-0.8-2.4-1.8-3.2-3.2c-0.8-1.4-1.2-3-1.2-4.8l5.7,1.8c0,0.6,0.3,1.1,0.8,1.6c0.6,0.5,1.2,0.7,2,0.7
				c1.3,0,2.2-0.4,2.7-1.3c0.5-0.9,0.7-1.9,0.7-3.1v-0.6c-0.5,0.5-1.1,0.8-1.9,1.1c-0.8,0.3-1.6,0.4-2.5,0.4c-1.4,0-2.7-0.3-3.9-0.9
				c-1.2-0.6-2.2-1.4-2.9-2.5s-1.1-2.4-1.1-3.9c0-1.3,0.3-2.6,0.9-3.9c0.6-1.3,1.5-2.3,2.7-3.1s2.6-1.2,4.3-1.2
				c0.7,0,1.5,0.1,2.4,0.4c0.8,0.3,1.6,0.6,2.2,1l0-0.8H158.2z M150.8,163.6c0.5-0.5,0.8-1.2,0.8-2c0-0.9-0.3-1.5-0.9-2
				s-1.2-0.7-2-0.7c-0.7,0-1.4,0.3-1.9,0.8c-0.6,0.5-0.8,1.2-0.8,2c0,0.8,0.3,1.5,0.9,2c0.6,0.5,1.2,0.8,2,0.8
				S150.2,164.1,150.8,163.6z"/>
			<path class="st9" d="M172.2,155c1.2,0.8,2.1,1.8,2.8,3.2c0.6,1.4,0.9,2.9,0.8,4.7l-10.8,0.8c0.3,0.6,0.7,1.1,1.2,1.5
				c0.5,0.4,1.2,0.6,1.8,0.6c0.7,0,1.3-0.1,1.8-0.4c0.5-0.3,0.8-0.6,1.1-1.1l4.6,1.2c-0.3,1-0.8,1.9-1.6,2.6
				c-0.8,0.8-1.7,1.4-2.7,1.8s-2.1,0.7-3.3,0.7c-1.5,0-3-0.4-4.2-1.2c-1.3-0.8-2.3-1.8-3.1-3.2c-0.8-1.3-1.1-2.8-1.1-4.4
				c0-1.6,0.4-2.9,1.1-4.1c0.7-1.2,1.7-2.1,3-2.8c1.3-0.7,2.7-1,4.2-1C169.5,153.9,170.9,154.3,172.2,155z M165.8,158.5
				c-0.5,0.4-0.9,1-1.1,1.7l5.6-0.5c-0.2-0.5-0.5-1-1-1.3c-0.5-0.3-1.1-0.5-1.7-0.5C167,157.9,166.4,158.1,165.8,158.5z"/>
			<path class="st9" d="M188.9,154.6c0.8,0.4,1.4,1,1.9,1.6l-2.1,4.8c-0.4-0.4-0.7-0.7-1.1-0.9c-0.4-0.2-0.7-0.3-1.2-0.3
				c-1.1,0-1.9,0.3-2.4,0.9c-0.5,0.6-0.7,1.5-0.8,2.8v6.6l-6.2,0.1l0.3-15.8l5.4-0.1l0.2,1.1c0.4-0.4,0.9-0.8,1.5-1s1.2-0.4,1.8-0.4
				C187.2,153.9,188.1,154.2,188.9,154.6z"/>
		</g>
	</g>
	<g>
		<path class="st5" d="M27.1,153.1l-6.6,0.1l0.1,16.8l-5.9,0.3l-0.1-16.9l-6.2,0.1L8,147.7l18.6-0.4L27.1,153.1z"/>
		<path class="st5" d="M36.2,170.2V169c-1,1-2.5,1.6-4.5,1.6c-1.3,0-2.5-0.4-3.6-1.1s-1.9-1.8-2.6-3.1c-0.6-1.3-0.9-2.7-0.9-4.1
			c0-1.5,0.3-2.8,1-4.1s1.6-2.3,2.7-3c1.1-0.8,2.3-1.1,3.5-1.1c2,0,3.4,0.5,4.2,1.6v-1.1h5.1l0.7,15.7H36.2z M35.3,164.3
			c0.5-0.5,0.7-1.2,0.7-2.1c0-0.8-0.3-1.5-0.8-2c-0.5-0.5-1.2-0.7-2-0.7c-0.8,0-1.4,0.3-1.9,0.8c-0.5,0.5-0.8,1.2-0.8,1.9
			c0,0.5,0.1,0.9,0.4,1.3c0.2,0.4,0.6,0.8,1,1.1c0.4,0.3,0.9,0.4,1.4,0.4C34.2,165.1,34.8,164.8,35.3,164.3z"/>
		<path class="st5" d="M54.8,159.9c-0.7-0.5-1.4-0.9-2-1.1c-0.6-0.2-1.3-0.4-2.2-0.4c-1.3,0-1.9,0.3-1.9,0.9c0,0.3,0.1,0.4,0.4,0.5
			c0.3,0.1,0.8,0.2,1.7,0.2c1.8,0.1,3.3,0.6,4.4,1.4c1.2,0.8,1.7,1.9,1.7,3.4c0,1-0.3,1.9-0.9,2.8c-0.6,0.9-1.5,1.5-2.6,2.1
			s-2.3,0.8-3.7,0.8c-1.3,0-2.6-0.2-3.9-0.7c-1.2-0.5-2.2-1.1-2.9-2l2.9-3.6c0.5,0.4,1.2,0.8,2,1c0.9,0.3,1.6,0.4,2.2,0.4
			c0.5,0,1-0.1,1.3-0.3c0.3-0.2,0.5-0.5,0.5-0.8c0-0.3-0.1-0.4-0.3-0.5c-0.2-0.1-0.7-0.1-1.5-0.2c-2-0.3-3.6-0.8-4.6-1.5
			c-1.1-0.8-1.6-1.7-1.6-3c0-1,0.3-1.9,0.9-2.7c0.6-0.8,1.5-1.5,2.5-2c1-0.5,2.2-0.7,3.4-0.7c1.2,0,2.4,0.2,3.7,0.7
			c1.3,0.4,2.2,1,2.9,1.7L54.8,159.9z"/>
		<path class="st5" d="M71.5,167.8c-0.6,0.9-1.3,1.6-2.2,2s-2,0.7-3.3,0.7c-1.8,0-3.2-0.4-4.1-1.2c-0.9-0.8-1.4-2.2-1.4-4.2
			c0-0.6,0-1.3,0.1-2.2l0.6-4.3l-2.4,0l-0.2-4.8l3.3-0.1l0.3-2.4l5.5-0.3l-0.3,2.5l3.1-0.1l0.6,4.9l-4.3,0l-0.5,3.8
			c0,0.1,0,0.3,0,0.5c0,0.6,0.2,1.1,0.5,1.5c0.3,0.4,0.8,0.6,1.3,0.6c0.8,0,1.5-0.5,2.1-1.4L71.5,167.8z"/>
		<path class="st5" d="M89,154l-4.5,15.5c-0.8,2.7-1.9,4.7-3.3,6c-1.4,1.3-3,1.9-4.9,1.9c-0.7,0-1.6-0.1-2.5-0.4
			c-0.9-0.2-1.8-0.6-2.6-0.9l2.3-5.8c0.2,0.3,0.6,0.6,1.3,0.9c0.7,0.3,1.2,0.5,1.6,0.5c0.6,0,1.1-0.2,1.6-0.5s0.7-0.8,1-1.4
			l-7.3-15.3l6.4-0.1l3,7.9l2-7.9L89,154z"/>
		<path class="st2" d="M104.9,158.4c0.7,0.6,1.2,1.3,1.6,2.2c0.4,0.9,0.6,1.9,0.6,3c0,4.5-3.3,6.8-9.8,6.8c-2.7,0-5.1-0.1-7-0.2
			v-21.4c0.9-0.4,2.1-0.8,3.6-1s2.8-0.3,4-0.3c2.2,0,3.9,0.5,5.3,1.6c1.4,1,2,2.5,2,4.3c0,2-0.9,3.3-2.6,4.1
			C103.5,157.6,104.2,157.9,104.9,158.4z M99.2,152.5c-0.4-0.3-1-0.5-1.6-0.5c-0.6,0-1,0.1-1.4,0.2l0,3.3c0.3,0.1,0.6,0.1,0.9,0.1
			c0.9,0,1.5-0.2,2-0.5c0.5-0.3,0.7-0.8,0.7-1.4C99.9,153.3,99.7,152.9,99.2,152.5z M100,164.6c0.5-0.5,0.8-1,0.8-1.6
			c0-0.7-0.3-1.3-0.9-1.7c-0.6-0.4-1.3-0.5-2.1-0.5c-0.6,0-1.2,0.1-1.6,0.4l0,3.8c0.2,0.1,0.5,0.2,0.8,0.2c0.3,0,0.6,0.1,0.9,0
			C98.8,165.3,99.5,165,100,164.6z"/>
		<path class="st2" d="M119,170.6v-1.2c-1.3,1-2.6,1.5-3.9,1.5c-2,0-3.6-0.7-4.6-2.2c-1-1.5-1.5-3.6-1.5-6.2l0-8h6.3l-0.1,7.2
			c0,0.9,0.1,1.7,0.5,2.2c0.3,0.5,0.8,0.8,1.5,0.8c0.7,0,1.2-0.2,1.5-0.7c0.3-0.5,0.4-1.2,0.4-2.2h0l0-7.3h6.2l0.1,15.9L119,170.6z"
			/>
		<path class="st2" d="M138.6,154.6c0.8,0.4,1.4,1,1.9,1.6l-2.1,4.8c-0.4-0.4-0.7-0.7-1.1-0.9c-0.4-0.2-0.7-0.3-1.2-0.3
			c-1.1,0-1.9,0.3-2.4,0.9c-0.5,0.6-0.7,1.5-0.8,2.8v6.6l-6.2,0.1l0.3-15.8l5.4-0.1l0.2,1.1c0.4-0.4,0.9-0.8,1.5-1s1.2-0.4,1.8-0.4
			C136.9,153.9,137.8,154.2,138.6,154.6z"/>
		<path class="st2" d="M158.2,154.4l-0.2,15.2c0,1-0.2,2.1-0.6,3.3c-0.4,1.2-1.2,2.4-2.4,3.4c-1.2,1-2.9,1.5-5.1,1.5
			c-1.7,0-3.3-0.4-4.6-1.1c-1.4-0.8-2.4-1.8-3.2-3.2c-0.8-1.4-1.2-3-1.2-4.8l5.7,1.8c0,0.6,0.3,1.1,0.8,1.6c0.6,0.5,1.2,0.7,2,0.7
			c1.3,0,2.2-0.4,2.7-1.3c0.5-0.9,0.7-1.9,0.7-3.1v-0.6c-0.5,0.5-1.1,0.8-1.9,1.1c-0.8,0.3-1.6,0.4-2.5,0.4c-1.4,0-2.7-0.3-3.9-0.9
			c-1.2-0.6-2.2-1.4-2.9-2.5s-1.1-2.4-1.1-3.9c0-1.3,0.3-2.6,0.9-3.9c0.6-1.3,1.5-2.3,2.7-3.1s2.6-1.2,4.3-1.2
			c0.7,0,1.5,0.1,2.4,0.4c0.8,0.3,1.6,0.6,2.2,1l0-0.8H158.2z M150.8,163.6c0.5-0.5,0.8-1.2,0.8-2c0-0.9-0.3-1.5-0.9-2
			s-1.2-0.7-2-0.7c-0.7,0-1.4,0.3-1.9,0.8c-0.6,0.5-0.8,1.2-0.8,2c0,0.8,0.3,1.5,0.9,2c0.6,0.5,1.2,0.8,2,0.8
			S150.2,164.1,150.8,163.6z"/>
		<path class="st2" d="M172.2,155c1.2,0.8,2.1,1.8,2.8,3.2c0.6,1.4,0.9,2.9,0.8,4.7l-10.8,0.8c0.3,0.6,0.7,1.1,1.2,1.5
			c0.5,0.4,1.2,0.6,1.8,0.6c0.7,0,1.3-0.1,1.8-0.4c0.5-0.3,0.8-0.6,1.1-1.1l4.6,1.2c-0.3,1-0.8,1.9-1.6,2.6
			c-0.8,0.8-1.7,1.4-2.7,1.8s-2.1,0.7-3.3,0.7c-1.5,0-3-0.4-4.2-1.2c-1.3-0.8-2.3-1.8-3.1-3.2c-0.8-1.3-1.1-2.8-1.1-4.4
			c0-1.6,0.4-2.9,1.1-4.1c0.7-1.2,1.7-2.1,3-2.8c1.3-0.7,2.7-1,4.2-1C169.5,153.9,170.9,154.3,172.2,155z M165.8,158.5
			c-0.5,0.4-0.9,1-1.1,1.7l5.6-0.5c-0.2-0.5-0.5-1-1-1.3c-0.5-0.3-1.1-0.5-1.7-0.5C167,157.9,166.4,158.1,165.8,158.5z"/>
		<path class="st2" d="M188.9,154.6c0.8,0.4,1.4,1,1.9,1.6l-2.1,4.8c-0.4-0.4-0.7-0.7-1.1-0.9c-0.4-0.2-0.7-0.3-1.2-0.3
			c-1.1,0-1.9,0.3-2.4,0.9c-0.5,0.6-0.7,1.5-0.8,2.8v6.6l-6.2,0.1l0.3-15.8l5.4-0.1l0.2,1.1c0.4-0.4,0.9-0.8,1.5-1s1.2-0.4,1.8-0.4
			C187.2,153.9,188.1,154.2,188.9,154.6z"/>
	</g>
</g>
</svg>
