<?xml version="1.0" encoding="utf-8"?>
<!-- Generator: Adobe Illustrator 21.1.0, SVG Export Plug-In . SVG Version: 6.00 Build 0)  -->
<svg version="1.1" id="Calque_1" xmlns="http://www.w3.org/2000/svg" xmlns:xlink="http://www.w3.org/1999/xlink" x="0px" y="0px"
	 viewBox="0 0 308.1 145.4" style="enable-background:new 0 0 308.1 145.4;" xml:space="preserve">
<style type="text/css">
	.st0{fill:#F2C15C;}
	.st1{fill:#FEC552;}
	.st2{fill:#FCB017;}
	.st3{fill:#924B2C;}
	.st4{fill:#D91F27;}
	.st5{fill:#F2D437;}
	.st6{fill:#AFBF37;}
	.st7{fill:#7D371A;}
	.st8{fill:#BA2025;}
	.st9{fill:#7D371A;stroke:#7D371A;stroke-width:9;stroke-miterlimit:10;}
</style>
<g>
	<polygon class="st0" points="88.7,73.8 96.7,0 91.3,74.1 112.3,2.8 93.8,74.8 127.2,8.4 96.2,75.9 140.9,16.6 98.3,77.4 
		152.9,27.1 100.1,79.3 162.8,39.5 101.6,81.5 170.4,53.5 102.6,83.9 175.3,68.7 103.2,86.5 177.4,84.5 103.3,89.1 176.7,100.4 
		103,91.7 173.2,115.9 102.2,94.2 166.9,130.5 100.9,96.5 158.1,143.8 99.3,98.5 97.3,100.3 95.1,101.6 92.6,102.5 90,103 87.4,103 
		84.8,102.5 82.4,101.6 80.1,100.3 78.1,98.5 19.3,143.8 76.5,96.5 10.5,130.5 75.3,94.2 4.3,115.9 74.5,91.7 0.7,100.4 74.1,89.1 
		0,84.5 74.2,86.5 2.1,68.7 74.8,83.9 7.1,53.5 75.8,81.5 14.6,39.5 77.3,79.3 24.5,27.1 79.1,77.4 36.5,16.6 81.2,75.9 50.2,8.4 
		83.6,74.8 65.1,2.8 86.1,74.1 80.7,0 	"/>
	<path class="st1" d="M59,50c7.4-6.1,18-9.5,29.8-9.5c11.7,0,22.3,3.4,29.8,9.5c7.5,6.2,11.7,14.9,12.1,25.4H46.8
		C47.3,64.9,51.5,56.1,59,50z"/>
	<path class="st2" d="M112.7,136.8H64.8c-7.2,0-13.5-3.7-17.2-9.3c21.3-0.2,42.2-0.2,63.6,0c0,0,0,0,0,0c0.8,0,1.5-0.7,1.5-1.5
		c0-0.9-0.7-1.6-1.5-1.6c-22-0.2-43.4-0.2-65.3,0c-0.9-2-1.5-4.2-1.7-6.5h1h87.3h0.8C132.3,128.5,123.4,136.8,112.7,136.8z"/>
	<path class="st3" d="M96.3,108.9l4,4c0.1,0.1,0.2,0.2,0.3,0.2c0,0,0.1,0,0.1,0c0.1,0,0.2,0.1,0.2,0.1c0,0,0.1,0,0.1,0
		c0.1,0,0.1,0.1,0.2,0.1c0,0,0.1,0,0.1,0c0.1,0,0.1,0,0.2,0c0,0,0,0,0,0c0.1,0,0.1,0,0.2,0c0.1,0,0.1,0,0.2,0c0.1,0,0.1,0,0.2,0
		c0.1,0,0.1,0,0.2,0c0.1,0,0.1-0.1,0.2-0.1c0,0,0.1,0,0.1-0.1c0.1-0.1,0.2-0.1,0.3-0.2l4.4-4.1h23.5v5.3H47v-5.3H96.3z"/>
	<path class="st4" d="M47.2,101.9L47.2,101.9c0-1.7,1.4-3.1,3.1-3.1h31.5c1.7,0,3.1,1.4,3.1,3.1l0,0c0,1.7-1.4,3.1-3.1,3.1H50.3
		C48.6,105.1,47.2,103.7,47.2,101.9z"/>
	<path class="st5" d="M101.6,109.1l-3.2-3.3L85.9,93.1l-0.1-0.1c0.1-0.1,0.1-0.2,0.2-0.2l0.9-1c0.4-0.5,0.9-0.5,1.1-0.5
		c0,0,0,0,0.1,0c0.1,0,0.4,0.1,0.6,0.3c0.1,0.1,0.3,0.3,0.4,0.5l1.8,3.8c0.8,1.7,2.5,2.8,4.3,2.9c1.9,0.1,3.6-0.9,4.6-2.5l1.3-2.1
		c0.3-0.5,0.7-0.6,0.9-0.6c0.1,0,0.1,0,0.2,0c0.1,0,0.3,0,0.5,0.1c0,0,0.1,0,0.1,0c0,0,0,0,0.1,0c0.1,0,0.2,0.1,0.2,0.2l3.1,2.5
		c1.1,0.9,2.5,1.3,3.8,1.1c1.4-0.2,2.6-0.9,3.4-2l3.7-5c0.4-0.5,0.9-0.5,1.1-0.5c0.2,0,0.7,0.1,1.1,0.6l0.9,1.3L101.6,109.1z"/>
	<path class="st4" d="M126.3,98.8c1.7,0,3.1,1.4,3.1,3.1l0,0c0,1.7-1.4,3.1-3.1,3.1h-7.5c-1.7,0-3.1-1.4-3.1-3.1l0,0
		c0-1.7,1.4-3.1,3.1-3.1H126.3z"/>
	<path class="st6" d="M136.2,84.8c-0.1,0.2-0.5,0.9-1.5,0.7c-1.1-0.2-2.2-0.1-3.1,0.3c0,0-0.1,0-0.1,0c-0.1,0-0.2,0.1-0.3,0.2
		c0,0-0.1,0-0.1,0.1c-0.2,0.1-0.3,0.2-0.5,0.3c0,0-0.1,0.1-0.1,0.1c0,0-0.1,0.1-0.1,0.1c0,0-0.1,0.1-0.1,0.1c0,0-0.1,0.1-0.1,0.1
		c-0.8,0.8-1.4,1.8-1.5,3c0,0.1,0,0.2,0,0.3c0,0.1,0,0.1,0,0.2c0,0.2,0,0.3,0,0.5l0.1,1.9l0.1,0.9c0,0.7-0.4,1.1-0.7,1.2
		c-0.1,0.1-0.2,0.1-0.2,0.1c-0.2,0.1-0.8,0.2-1.3-0.2c-0.1-0.1-0.2-0.2-0.3-0.3l-1-1.5l-1.2-1.9c0,0,0,0,0,0l0,0l-1.7-2.6l0,0
		c-0.1-0.2-0.2-0.3-0.4-0.5c-0.9-1.1-2.3-1.7-3.7-1.8c-1.6,0-3.2,0.7-4.2,2l-3.7,5c-0.2,0.3-0.5,0.5-0.9,0.5c-0.1,0-0.2,0-0.3,0
		c-0.3,0-0.5-0.1-0.7-0.3l-2.3-1.9l-0.8-0.7c-0.1,0-0.1-0.1-0.2-0.1c-1-0.7-2.2-1.1-3.4-1c-0.2,0-0.4,0-0.5,0.1
		c-0.5,0.1-1,0.3-1.4,0.5c0,0-0.1,0-0.1,0.1c-0.1,0-0.1,0.1-0.2,0.1c-0.1,0.1-0.2,0.1-0.3,0.2c0,0,0,0,0,0c-0.6,0.4-1.1,0.9-1.4,1.5
		l-1.3,2.1c-0.4,0.6-1,0.7-1.2,0.6c-0.2,0-0.8-0.1-1.1-0.8l-1.8-3.8c-0.7-1.6-2.2-2.6-3.9-2.8c-1.7-0.2-3.4,0.5-4.5,1.8l-0.9,1
		c-0.1,0.1-0.2,0.2-0.2,0.2c0,0-0.1,0-0.1,0.1c-0.1,0-0.1,0.1-0.2,0.1c0,0,0,0,0,0l0,0c0,0,0,0,0,0l0,0c0,0,0,0,0,0c0,0,0,0,0,0
		c-0.1,0-0.1,0-0.1,0c0,0-0.1,0-0.1,0c0,0,0,0,0,0c-0.1,0-0.3,0-0.4,0c0,0-0.1,0-0.1,0c0,0-0.1,0-0.1,0c-0.1,0-0.2-0.1-0.2-0.1
		c0,0,0,0,0,0c-0.1-0.1-0.2-0.1-0.2-0.2l-2-2.5c-1-1.3-2.6-2-4.3-1.8c-1.6,0.1-3.1,1.1-4,2.5l-3.8,6.5c-0.4,0.6-1,0.7-1.2,0.7
		c-0.2,0-0.8-0.1-1.1-0.8l-1.6-3.4c-0.8-1.6-2.3-2.7-4.1-2.9c-0.2,0-0.3,0-0.5,0c0,0,0,0-0.1,0c-0.1,0-0.2,0-0.3,0
		c-0.1,0-0.2,0-0.4,0c-0.1,0-0.2,0-0.3,0c-0.1,0-0.2,0-0.3,0.1c-0.1,0-0.2,0.1-0.3,0.1c-0.1,0-0.2,0.1-0.3,0.1
		c-0.1,0-0.2,0.1-0.3,0.1c-0.1,0-0.2,0.1-0.3,0.1c-0.1,0-0.2,0.1-0.2,0.1c-0.1,0.1-0.2,0.1-0.3,0.2c-0.1,0.1-0.1,0.1-0.2,0.2
		c-0.1,0.1-0.2,0.2-0.3,0.3c-0.1,0.1-0.1,0.1-0.2,0.2c-0.1,0.2-0.3,0.3-0.4,0.5l-3.3,4.4c-0.6,0.7-1.3,0.5-1.5,0.4
		c-0.2-0.1-0.9-0.4-0.8-1.4l0.3-3.5c0-0.2,0-0.4,0-0.5c0-0.1,0-0.1,0-0.2c0-0.1,0-0.2,0-0.3c0-0.1,0-0.2,0-0.3c0,0,0,0,0,0
		c-0.1-0.8-0.5-1.6-1-2.3c0,0,0,0,0,0c-0.1-0.1-0.2-0.2-0.3-0.3c0,0,0,0-0.1-0.1c-0.1-0.1-0.2-0.2-0.3-0.3c-0.1-0.1-0.1-0.1-0.2-0.2
		c0,0-0.1-0.1-0.1-0.1c-0.1-0.1-0.2-0.1-0.3-0.2c0,0-0.1,0-0.1-0.1c-1.1-0.7-2.4-0.9-3.7-0.6l-0.4,0.1c-1,0.2-1.4-0.5-1.5-0.7
		c-0.1-0.2-0.4-1,0.4-1.6l5.1-4.1h83.9l5.1,4.1C136.6,83.8,136.3,84.6,136.2,84.8z"/>
	<path class="st2" d="M118.5,60.4c-7.4-6.1-18-9.5-29.8-9.5S66.4,54.2,59,60.4c-4.8,4-8.3,9.1-10.3,15h80
		C126.8,69.5,123.3,64.4,118.5,60.4z"/>
	<path class="st1" d="M111.1,127.6C111.1,127.6,111.1,127.6,111.1,127.6c-21.4-0.2-42.3-0.2-63.6,0c3.7,5.6,10.1,9.3,17.2,9.3h47.9
		c7.7,0,14.4-4.2,18-10.5h-18C112.5,127.1,111.8,127.6,111.1,127.6z"/>
	<path class="st7" d="M138.1,80.3l-3.8-3c0,0,0,0,0-0.1c0-24.2-18.4-40.5-45.6-40.5S43.1,53,43.1,77.2c0,0,0,0,0,0l-3.8,3
		c-1.9,1.5-2.4,4-1.4,6.1c1,2.1,3.1,3.2,5.4,2.8v18v7.2h-1.1c-1,0-1.9,0.8-1.9,1.9c0,3.5,0.7,6.8,2.1,9.9l0.6,1.3
		c4.1,7.9,12.3,13.3,21.7,13.3h47.9c13.5,0,24.4-10.9,24.4-24.4c0-1-0.8-1.9-1.9-1.9h-0.9v-7.2V89.2c2.2,0.3,4.2-0.8,5.2-2.8
		C140.5,84.2,140,81.8,138.1,80.3z M59,50c7.4-6.1,18-9.5,29.8-9.5c11.7,0,22.3,3.4,29.8,9.5c7.5,6.2,11.7,14.9,12.1,25.4H46.8
		C47.3,64.9,51.5,56.1,59,50z M112.7,136.8H64.8c-7.2,0-13.5-3.7-17.2-9.3c21.3-0.2,42.2-0.2,63.6,0c0,0,0,0,0,0
		c0.8,0,1.5-0.7,1.5-1.5c0-0.9-0.7-1.6-1.5-1.6c-22-0.2-43.4-0.2-65.3,0c-0.9-2-1.5-4.2-1.7-6.5h1h87.3h0.8
		C132.3,128.5,123.4,136.8,112.7,136.8z M96.3,108.9l4,4c0.1,0.1,0.2,0.2,0.3,0.2c0,0,0.1,0,0.1,0c0.1,0,0.2,0.1,0.2,0.1
		c0,0,0.1,0,0.1,0c0.1,0,0.1,0.1,0.2,0.1c0,0,0.1,0,0.1,0c0.1,0,0.1,0,0.2,0c0,0,0,0,0,0c0.1,0,0.1,0,0.2,0c0.1,0,0.1,0,0.2,0
		c0.1,0,0.1,0,0.2,0c0.1,0,0.1,0,0.2,0c0.1,0,0.1-0.1,0.2-0.1c0,0,0.1,0,0.1-0.1c0.1-0.1,0.2-0.1,0.3-0.2l4.4-4.1h23.5v5.3H47v-5.3
		H96.3z M47.2,101.9L47.2,101.9c0-1.7,1.4-3.1,3.1-3.1h31.5c1.7,0,3.1,1.4,3.1,3.1l0,0c0,1.7-1.4,3.1-3.1,3.1H50.3
		C48.6,105.1,47.2,103.7,47.2,101.9z M101.6,109.1l-3.2-3.3L85.9,93.1l-0.1-0.1c0.1-0.1,0.1-0.2,0.2-0.2l0.9-1
		c0.4-0.5,0.9-0.5,1.1-0.5c0,0,0,0,0.1,0c0.1,0,0.4,0.1,0.6,0.3c0.1,0.1,0.3,0.3,0.4,0.5l1.8,3.8c0.8,1.7,2.5,2.8,4.3,2.9
		c1.9,0.1,3.6-0.9,4.6-2.5l1.3-2.1c0.3-0.5,0.7-0.6,0.9-0.6c0.1,0,0.1,0,0.2,0c0.1,0,0.3,0,0.5,0.1c0,0,0.1,0,0.1,0c0,0,0,0,0.1,0
		c0.1,0,0.2,0.1,0.2,0.2l3.1,2.5c1.1,0.9,2.5,1.3,3.8,1.1c1.4-0.2,2.6-0.9,3.4-2l3.7-5c0.4-0.5,0.9-0.5,1.1-0.5
		c0.2,0,0.7,0.1,1.1,0.6l0.9,1.3L101.6,109.1z M126.3,98.8c1.7,0,3.1,1.4,3.1,3.1l0,0c0,1.7-1.4,3.1-3.1,3.1h-7.5
		c-1.7,0-3.1-1.4-3.1-3.1l0,0c0-1.7,1.4-3.1,3.1-3.1H126.3z M136.2,84.8c-0.1,0.2-0.5,0.9-1.5,0.7c-1.1-0.2-2.2-0.1-3.1,0.3
		c0,0-0.1,0-0.1,0c-0.1,0-0.2,0.1-0.3,0.2c0,0-0.1,0-0.1,0.1c-0.2,0.1-0.3,0.2-0.5,0.3c0,0-0.1,0.1-0.1,0.1c0,0-0.1,0.1-0.1,0.1
		c0,0-0.1,0.1-0.1,0.1c0,0-0.1,0.1-0.1,0.1c-0.8,0.8-1.4,1.8-1.5,3c0,0.1,0,0.2,0,0.3c0,0.1,0,0.1,0,0.2c0,0.2,0,0.3,0,0.5l0.1,1.9
		l0.1,0.9c0,0.7-0.4,1.1-0.7,1.2c-0.1,0.1-0.2,0.1-0.2,0.1c-0.2,0.1-0.8,0.2-1.3-0.2c-0.1-0.1-0.2-0.2-0.3-0.3l-1-1.5l-1.2-1.9
		c0,0,0,0,0,0l0,0l-1.7-2.6l0,0c-0.1-0.2-0.2-0.3-0.4-0.5c-0.9-1.1-2.3-1.7-3.7-1.8c-1.6,0-3.2,0.7-4.2,2l-3.7,5
		c-0.2,0.3-0.5,0.5-0.9,0.5c-0.1,0-0.2,0-0.3,0c-0.3,0-0.5-0.1-0.7-0.3l-2.3-1.9l-0.8-0.7c-0.1,0-0.1-0.1-0.2-0.1
		c-1-0.7-2.2-1.1-3.4-1c-0.2,0-0.4,0-0.5,0.1c-0.5,0.1-1,0.3-1.4,0.5c0,0-0.1,0-0.1,0.1c-0.1,0-0.1,0.1-0.2,0.1
		c-0.1,0.1-0.2,0.1-0.3,0.2c0,0,0,0,0,0c-0.6,0.4-1.1,0.9-1.4,1.5l-1.3,2.1c-0.4,0.6-1,0.7-1.2,0.6c-0.2,0-0.8-0.1-1.1-0.8l-1.8-3.8
		c-0.7-1.6-2.2-2.6-3.9-2.8c-1.7-0.2-3.4,0.5-4.5,1.8l-0.9,1c-0.1,0.1-0.2,0.2-0.2,0.2c0,0-0.1,0-0.1,0.1c-0.1,0-0.1,0.1-0.2,0.1
		c0,0,0,0,0,0l0,0c0,0,0,0,0,0l0,0c0,0,0,0,0,0c0,0,0,0,0,0c-0.1,0-0.1,0-0.1,0c0,0-0.1,0-0.1,0c0,0,0,0,0,0c-0.1,0-0.3,0-0.4,0
		c0,0-0.1,0-0.1,0c0,0-0.1,0-0.1,0c-0.1,0-0.2-0.1-0.2-0.1c0,0,0,0,0,0c-0.1-0.1-0.2-0.1-0.2-0.2l-2-2.5c-1-1.3-2.6-2-4.3-1.8
		c-1.6,0.1-3.1,1.1-4,2.5l-3.8,6.5c-0.4,0.6-1,0.7-1.2,0.7c-0.2,0-0.8-0.1-1.1-0.8l-1.6-3.4c-0.8-1.6-2.3-2.7-4.1-2.9
		c-0.2,0-0.3,0-0.5,0c0,0,0,0-0.1,0c-0.1,0-0.2,0-0.3,0c-0.1,0-0.2,0-0.4,0c-0.1,0-0.2,0-0.3,0c-0.1,0-0.2,0-0.3,0.1
		c-0.1,0-0.2,0.1-0.3,0.1c-0.1,0-0.2,0.1-0.3,0.1c-0.1,0-0.2,0.1-0.3,0.1c-0.1,0-0.2,0.1-0.3,0.1c-0.1,0-0.2,0.1-0.2,0.1
		c-0.1,0.1-0.2,0.1-0.3,0.2c-0.1,0.1-0.1,0.1-0.2,0.2c-0.1,0.1-0.2,0.2-0.3,0.3c-0.1,0.1-0.1,0.1-0.2,0.2c-0.1,0.2-0.3,0.3-0.4,0.5
		l-3.3,4.4c-0.6,0.7-1.3,0.5-1.5,0.4c-0.2-0.1-0.9-0.4-0.8-1.4l0.3-3.5c0-0.2,0-0.4,0-0.5c0-0.1,0-0.1,0-0.2c0-0.1,0-0.2,0-0.3
		c0-0.1,0-0.2,0-0.3c0,0,0,0,0,0c-0.1-0.8-0.5-1.6-1-2.3c0,0,0,0,0,0c-0.1-0.1-0.2-0.2-0.3-0.3c0,0,0,0-0.1-0.1
		c-0.1-0.1-0.2-0.2-0.3-0.3c-0.1-0.1-0.1-0.1-0.2-0.2c0,0-0.1-0.1-0.1-0.1c-0.1-0.1-0.2-0.1-0.3-0.2c0,0-0.1,0-0.1-0.1
		c-1.1-0.7-2.4-0.9-3.7-0.6l-0.4,0.1c-1,0.2-1.4-0.5-1.5-0.7c-0.1-0.2-0.4-1,0.4-1.6l5.1-4.1h83.9l5.1,4.1
		C136.6,83.8,136.3,84.6,136.2,84.8z"/>
	<path class="st8" d="M75.4,103h4.4c0.5,0,0.9-0.4,0.9-0.9c0-0.5-0.4-0.9-0.9-0.9h-4.4c-0.5,0-0.9,0.4-0.9,0.9
		C74.5,102.6,74.9,103,75.4,103z"/>
	<path class="st8" d="M52.5,103h20c0.5,0,0.9-0.4,0.9-0.9c0-0.5-0.4-0.9-0.9-0.9h-20c-0.5,0-0.9,0.4-0.9,0.9
		C51.6,102.6,52,103,52.5,103z"/>
	<path class="st8" d="M119.7,103h6.6c0.5,0,0.9-0.4,0.9-0.9c0-0.5-0.4-0.9-0.9-0.9h-6.6c-0.5,0-0.9,0.4-0.9,0.9
		C118.7,102.6,119.1,103,119.7,103z"/>
	<circle class="st7" cx="108.3" cy="53.3" r="2.3"/>
	<circle class="st7" cx="94.9" cy="63.5" r="2.3"/>
	<circle class="st7" cx="62.5" cy="63.5" r="2.3"/>
	<circle class="st7" cx="92.6" cy="49.1" r="2.3"/>
	<circle class="st7" cx="79.8" cy="55.6" r="2.3"/>
	<circle class="st7" cx="117.7" cy="65.8" r="2.3"/>
	<circle class="st7" cx="68.2" cy="49.9" r="2.3"/>
	<path class="st7" d="M123,124.5h-4.9c-0.9,0-1.5,0.7-1.5,1.5s0.7,1.5,1.5,1.5h4.9c0.9,0,1.5-0.7,1.5-1.5S123.8,124.5,123,124.5z"/>
	<g>
		<g>
			<path class="st9" d="M177.9,57.5l-10.2,0.2l0.1,25.8l-9,0.4l-0.1-26l-9.5,0.2l-0.6-9.1l28.5-0.7L177.9,57.5z"/>
			<path class="st9" d="M191.9,83.7v-1.7c-1.5,1.6-3.8,2.4-6.9,2.4c-2,0-3.8-0.6-5.5-1.7c-1.7-1.2-3-2.7-4-4.7c-1-2-1.5-4.1-1.5-6.4
				c0-2.2,0.5-4.3,1.6-6.3s2.4-3.5,4.1-4.7c1.7-1.2,3.5-1.7,5.3-1.7c3,0,5.2,0.8,6.5,2.4v-1.7h7.8l1.1,24.1H191.9z M190.6,74.7
				c0.8-0.8,1.1-1.8,1.1-3.2c0-1.3-0.4-2.3-1.2-3.1c-0.8-0.8-1.8-1.1-3.1-1.1c-1.2,0-2.2,0.4-3,1.2c-0.8,0.8-1.2,1.8-1.2,3
				c0,0.7,0.2,1.4,0.5,2.1s0.9,1.2,1.5,1.7c0.7,0.4,1.4,0.7,2.2,0.7C188.8,75.9,189.9,75.5,190.6,74.7z"/>
			<path class="st9" d="M220.5,67.9c-1.1-0.8-2.1-1.3-3-1.7c-0.9-0.4-2-0.5-3.4-0.5c-2,0-3,0.5-3,1.5c0,0.4,0.2,0.7,0.6,0.8
				c0.4,0.1,1.3,0.2,2.6,0.3c2.8,0.2,5,0.9,6.8,2.2c1.8,1.2,2.7,3,2.7,5.2c0,1.5-0.5,3-1.4,4.3c-1,1.3-2.3,2.4-4,3.2
				c-1.7,0.8-3.6,1.2-5.7,1.2c-2.1,0-4-0.4-6-1.1c-1.9-0.8-3.4-1.8-4.5-3l4.5-5.5c0.8,0.6,1.8,1.2,3.1,1.6c1.3,0.4,2.4,0.6,3.4,0.6
				c0.8,0,1.5-0.2,2-0.5c0.5-0.3,0.7-0.7,0.7-1.2c0-0.4-0.2-0.6-0.5-0.7c-0.3-0.1-1.1-0.2-2.4-0.3c-3.1-0.4-5.5-1.2-7.1-2.3
				c-1.6-1.2-2.5-2.7-2.5-4.5c0-1.5,0.5-2.9,1.4-4.1s2.2-2.3,3.8-3c1.6-0.7,3.3-1.1,5.2-1.1c1.8,0,3.7,0.3,5.6,1
				c1.9,0.7,3.4,1.6,4.5,2.6L220.5,67.9z"/>
			<path class="st9" d="M246.1,80.1c-0.9,1.4-2,2.5-3.4,3.1c-1.4,0.7-3.1,1-5.1,1c-2.8,0-4.9-0.6-6.3-1.9c-1.4-1.2-2.2-3.4-2.2-6.5
				c0-0.8,0.1-2,0.2-3.3l0.9-6.6l-3.7,0l-0.3-7.3l5-0.1l0.5-3.6l8.4-0.4l-0.5,3.9l4.7-0.1l0.9,7.5l-6.6,0l-0.7,5.8
				c0,0.2,0,0.4,0,0.8c0,0.9,0.3,1.7,0.8,2.3s1.2,0.9,2,0.9c1.3,0,2.3-0.7,3.2-2.2L246.1,80.1z"/>
			<path class="st9" d="M272.9,58.9l-6.9,23.9c-1.2,4.1-3,7.2-5.1,9.2c-2.2,2-4.7,3-7.5,3c-1.1,0-2.4-0.2-3.8-0.6
				c-1.4-0.4-2.8-0.9-4.1-1.4l3.5-8.9c0.3,0.4,0.9,0.9,1.9,1.4c1,0.5,1.8,0.8,2.4,0.8c1,0,1.8-0.3,2.4-0.8c0.6-0.5,1.1-1.3,1.5-2.2
				l-11.2-23.5l9.8-0.1l4.6,12.1l3.1-12.2L272.9,58.9z"/>
			<path class="st9" d="M171.2,111.1c1.1,0.8,1.9,2,2.5,3.4c0.6,1.4,0.9,2.9,0.9,4.6c0,6.9-5,10.4-15.1,10.4
				c-4.2,0-7.8-0.1-10.7-0.3V96.3c1.4-0.7,3.2-1.2,5.5-1.5c2.3-0.3,4.3-0.5,6.1-0.5c3.3,0,6,0.8,8.1,2.4s3.1,3.8,3.1,6.7
				c0,3-1.3,5.1-4,6.3C168.9,109.8,170.1,110.3,171.2,111.1z M162.4,102.1c-0.7-0.5-1.5-0.8-2.5-0.8c-0.9,0-1.6,0.1-2.2,0.4l0,5.1
				c0.5,0.1,0.9,0.2,1.5,0.2c1.3,0,2.4-0.3,3.1-0.8c0.7-0.5,1.1-1.2,1.1-2.1C163.4,103.3,163.1,102.6,162.4,102.1z M163.6,120.5
				c0.8-0.7,1.2-1.5,1.2-2.4c0-1.2-0.4-2-1.3-2.6c-0.9-0.6-2-0.8-3.2-0.8c-1,0-1.8,0.2-2.5,0.7l0,5.8c0.3,0.2,0.7,0.3,1.2,0.3
				c0.5,0.1,1,0.1,1.4,0.1C161.8,121.6,162.8,121.2,163.6,120.5z"/>
			<path class="st9" d="M192.7,129.8V128c-2,1.5-4,2.3-6,2.3c-3.1,0-5.5-1.2-7-3.5c-1.6-2.3-2.3-5.5-2.3-9.5l0-12.3h9.7l-0.2,11
				c0,1.5,0.2,2.6,0.7,3.4c0.5,0.8,1.3,1.2,2.3,1.2c1.1,0,1.9-0.4,2.3-1.1c0.4-0.7,0.7-1.8,0.7-3.4h0l0-11.2h9.5l0.1,24.4
				L192.7,129.8z"/>
			<path class="st9" d="M222.8,105.2c1.2,0.7,2.2,1.5,2.9,2.5l-3.2,7.4c-0.6-0.6-1.1-1.1-1.7-1.4c-0.5-0.3-1.1-0.4-1.8-0.4
				c-1.7,0-2.9,0.5-3.6,1.4c-0.7,0.9-1.1,2.3-1.3,4.2V129l-9.5,0.1l0.4-24.2l8.3-0.2l0.4,1.6c0.7-0.7,1.4-1.2,2.3-1.6
				c0.9-0.4,1.8-0.6,2.8-0.6C220.3,104.2,221.6,104.6,222.8,105.2z"/>
			<path class="st9" d="M252.9,104.9l-0.3,23.4c0,1.5-0.3,3.2-0.9,5.1c-0.6,1.9-1.8,3.6-3.7,5.2c-1.8,1.5-4.5,2.3-7.9,2.3
				c-2.6,0-5-0.6-7.1-1.7s-3.7-2.8-4.9-4.9c-1.2-2.1-1.8-4.6-1.8-7.3l8.8,2.8c0,0.9,0.4,1.8,1.3,2.5c0.8,0.7,1.9,1,3.1,1
				c2,0,3.4-0.7,4.1-2c0.8-1.3,1.1-2.9,1-4.8v-1c-0.8,0.7-1.8,1.3-2.9,1.7c-1.2,0.4-2.5,0.6-3.9,0.6c-2.2,0-4.2-0.5-6-1.4
				c-1.8-0.9-3.3-2.2-4.4-3.9s-1.7-3.7-1.7-6c0-2.1,0.5-4.1,1.4-6s2.3-3.5,4.2-4.7s4-1.8,6.6-1.8c1.2,0,2.4,0.2,3.7,0.6
				c1.3,0.4,2.4,0.9,3.4,1.5l0-1.2H252.9z M241.6,119.1c0.8-0.8,1.2-1.8,1.2-3.1c0-1.3-0.5-2.4-1.4-3.1c-0.9-0.8-1.9-1.1-3-1.1
				c-1.1,0-2.1,0.4-3,1.2s-1.3,1.8-1.3,3.1c0,1.3,0.4,2.3,1.3,3.1c0.9,0.8,1.9,1.2,3,1.2C239.7,120.3,240.7,119.9,241.6,119.1z"/>
			<path class="st9" d="M274.4,105.9c1.9,1.2,3.3,2.8,4.2,4.9c0.9,2.1,1.3,4.5,1.2,7.2l-16.6,1.2c0.4,0.9,1.1,1.7,1.9,2.2
				c0.8,0.6,1.8,0.9,2.8,0.9c1.1,0,2-0.2,2.8-0.6c0.8-0.4,1.3-0.9,1.6-1.6l7.1,1.8c-0.5,1.5-1.3,2.9-2.4,4c-1.2,1.2-2.5,2.1-4.2,2.8
				s-3.3,1-5,1c-2.4,0-4.5-0.6-6.5-1.8c-2-1.2-3.6-2.8-4.7-4.9c-1.2-2-1.7-4.3-1.7-6.7c0-2.4,0.6-4.5,1.7-6.4
				c1.1-1.8,2.6-3.3,4.5-4.3c1.9-1,4.1-1.5,6.5-1.5C270.3,104.2,272.5,104.8,274.4,105.9z M264.7,111.2c-0.8,0.6-1.3,1.5-1.7,2.5
				l8.6-0.8c-0.2-0.8-0.7-1.5-1.5-2s-1.6-0.7-2.6-0.7C266.4,110.3,265.5,110.6,264.7,111.2z"/>
			<path class="st9" d="M300,105.2c1.2,0.7,2.2,1.5,2.9,2.5l-3.2,7.4c-0.6-0.6-1.1-1.1-1.7-1.4c-0.5-0.3-1.1-0.4-1.8-0.4
				c-1.7,0-2.9,0.5-3.6,1.4c-0.7,0.9-1.1,2.3-1.3,4.2V129l-9.5,0.1l0.4-24.2l8.3-0.2l0.4,1.6c0.7-0.7,1.4-1.2,2.3-1.6
				c0.9-0.4,1.8-0.6,2.8-0.6C297.5,104.2,298.8,104.6,300,105.2z"/>
		</g>
	</g>
	<g>
		<path class="st5" d="M177.9,57.5l-10.2,0.2l0.1,25.8l-9,0.4l-0.1-26l-9.5,0.2l-0.6-9.1l28.5-0.7L177.9,57.5z"/>
		<path class="st5" d="M191.9,83.7v-1.7c-1.5,1.6-3.8,2.4-6.9,2.4c-2,0-3.8-0.6-5.5-1.7c-1.7-1.2-3-2.7-4-4.7c-1-2-1.5-4.1-1.5-6.4
			c0-2.2,0.5-4.3,1.6-6.3s2.4-3.5,4.1-4.7c1.7-1.2,3.5-1.7,5.3-1.7c3,0,5.2,0.8,6.5,2.4v-1.7h7.8l1.1,24.1H191.9z M190.6,74.7
			c0.8-0.8,1.1-1.8,1.1-3.2c0-1.3-0.4-2.3-1.2-3.1c-0.8-0.8-1.8-1.1-3.1-1.1c-1.2,0-2.2,0.4-3,1.2c-0.8,0.8-1.2,1.8-1.2,3
			c0,0.7,0.2,1.4,0.5,2.1s0.9,1.2,1.5,1.7c0.7,0.4,1.4,0.7,2.2,0.7C188.8,75.9,189.9,75.5,190.6,74.7z"/>
		<path class="st5" d="M220.5,67.9c-1.1-0.8-2.1-1.3-3-1.7c-0.9-0.4-2-0.5-3.4-0.5c-2,0-3,0.5-3,1.5c0,0.4,0.2,0.7,0.6,0.8
			c0.4,0.1,1.3,0.2,2.6,0.3c2.8,0.2,5,0.9,6.8,2.2c1.8,1.2,2.7,3,2.7,5.2c0,1.5-0.5,3-1.4,4.3c-1,1.3-2.3,2.4-4,3.2
			c-1.7,0.8-3.6,1.2-5.7,1.2c-2.1,0-4-0.4-6-1.1c-1.9-0.8-3.4-1.8-4.5-3l4.5-5.5c0.8,0.6,1.8,1.2,3.1,1.6c1.3,0.4,2.4,0.6,3.4,0.6
			c0.8,0,1.5-0.2,2-0.5c0.5-0.3,0.7-0.7,0.7-1.2c0-0.4-0.2-0.6-0.5-0.7c-0.3-0.1-1.1-0.2-2.4-0.3c-3.1-0.4-5.5-1.2-7.1-2.3
			c-1.6-1.2-2.5-2.7-2.5-4.5c0-1.5,0.5-2.9,1.4-4.1s2.2-2.3,3.8-3c1.6-0.7,3.3-1.1,5.2-1.1c1.8,0,3.7,0.3,5.6,1
			c1.9,0.7,3.4,1.6,4.5,2.6L220.5,67.9z"/>
		<path class="st5" d="M246.1,80.1c-0.9,1.4-2,2.5-3.4,3.1c-1.4,0.7-3.1,1-5.1,1c-2.8,0-4.9-0.6-6.3-1.9c-1.4-1.2-2.2-3.4-2.2-6.5
			c0-0.8,0.1-2,0.2-3.3l0.9-6.6l-3.7,0l-0.3-7.3l5-0.1l0.5-3.6l8.4-0.4l-0.5,3.9l4.7-0.1l0.9,7.5l-6.6,0l-0.7,5.8c0,0.2,0,0.4,0,0.8
			c0,0.9,0.3,1.7,0.8,2.3s1.2,0.9,2,0.9c1.3,0,2.3-0.7,3.2-2.2L246.1,80.1z"/>
		<path class="st5" d="M272.9,58.9l-6.9,23.9c-1.2,4.1-3,7.2-5.1,9.2c-2.2,2-4.7,3-7.5,3c-1.1,0-2.4-0.2-3.8-0.6
			c-1.4-0.4-2.8-0.9-4.1-1.4l3.5-8.9c0.3,0.4,0.9,0.9,1.9,1.4c1,0.5,1.8,0.8,2.4,0.8c1,0,1.8-0.3,2.4-0.8c0.6-0.5,1.1-1.3,1.5-2.2
			l-11.2-23.5l9.8-0.1l4.6,12.1l3.1-12.2L272.9,58.9z"/>
		<path class="st2" d="M171.2,111.1c1.1,0.8,1.9,2,2.5,3.4c0.6,1.4,0.9,2.9,0.9,4.6c0,6.9-5,10.4-15.1,10.4c-4.2,0-7.8-0.1-10.7-0.3
			V96.3c1.4-0.7,3.2-1.2,5.5-1.5c2.3-0.3,4.3-0.5,6.1-0.5c3.3,0,6,0.8,8.1,2.4s3.1,3.8,3.1,6.7c0,3-1.3,5.1-4,6.3
			C168.9,109.8,170.1,110.3,171.2,111.1z M162.4,102.1c-0.7-0.5-1.5-0.8-2.5-0.8c-0.9,0-1.6,0.1-2.2,0.4l0,5.1
			c0.5,0.1,0.9,0.2,1.5,0.2c1.3,0,2.4-0.3,3.1-0.8c0.7-0.5,1.1-1.2,1.1-2.1C163.4,103.3,163.1,102.6,162.4,102.1z M163.6,120.5
			c0.8-0.7,1.2-1.5,1.2-2.4c0-1.2-0.4-2-1.3-2.6c-0.9-0.6-2-0.8-3.2-0.8c-1,0-1.8,0.2-2.5,0.7l0,5.8c0.3,0.2,0.7,0.3,1.2,0.3
			c0.5,0.1,1,0.1,1.4,0.1C161.8,121.6,162.8,121.2,163.6,120.5z"/>
		<path class="st2" d="M192.7,129.8V128c-2,1.5-4,2.3-6,2.3c-3.1,0-5.5-1.2-7-3.5c-1.6-2.3-2.3-5.5-2.3-9.5l0-12.3h9.7l-0.2,11
			c0,1.5,0.2,2.6,0.7,3.4c0.5,0.8,1.3,1.2,2.3,1.2c1.1,0,1.9-0.4,2.3-1.1c0.4-0.7,0.7-1.8,0.7-3.4h0l0-11.2h9.5l0.1,24.4
			L192.7,129.8z"/>
		<path class="st2" d="M222.8,105.2c1.2,0.7,2.2,1.5,2.9,2.5l-3.2,7.4c-0.6-0.6-1.1-1.1-1.7-1.4c-0.5-0.3-1.1-0.4-1.8-0.4
			c-1.7,0-2.9,0.5-3.6,1.4c-0.7,0.9-1.1,2.3-1.3,4.2V129l-9.5,0.1l0.4-24.2l8.3-0.2l0.4,1.6c0.7-0.7,1.4-1.2,2.3-1.6
			c0.9-0.4,1.8-0.6,2.8-0.6C220.3,104.2,221.6,104.6,222.8,105.2z"/>
		<path class="st2" d="M252.9,104.9l-0.3,23.4c0,1.5-0.3,3.2-0.9,5.1c-0.6,1.9-1.8,3.6-3.7,5.2c-1.8,1.5-4.5,2.3-7.9,2.3
			c-2.6,0-5-0.6-7.1-1.7s-3.7-2.8-4.9-4.9c-1.2-2.1-1.8-4.6-1.8-7.3l8.8,2.8c0,0.9,0.4,1.8,1.3,2.5c0.8,0.7,1.9,1,3.1,1
			c2,0,3.4-0.7,4.1-2c0.8-1.3,1.1-2.9,1-4.8v-1c-0.8,0.7-1.8,1.3-2.9,1.7c-1.2,0.4-2.5,0.6-3.9,0.6c-2.2,0-4.2-0.5-6-1.4
			c-1.8-0.9-3.3-2.2-4.4-3.9s-1.7-3.7-1.7-6c0-2.1,0.5-4.1,1.4-6s2.3-3.5,4.2-4.7s4-1.8,6.6-1.8c1.2,0,2.4,0.2,3.7,0.6
			c1.3,0.4,2.4,0.9,3.4,1.5l0-1.2H252.9z M241.6,119.1c0.8-0.8,1.2-1.8,1.2-3.1c0-1.3-0.5-2.4-1.4-3.1c-0.9-0.8-1.9-1.1-3-1.1
			c-1.1,0-2.1,0.4-3,1.2s-1.3,1.8-1.3,3.1c0,1.3,0.4,2.3,1.3,3.1c0.9,0.8,1.9,1.2,3,1.2C239.7,120.3,240.7,119.9,241.6,119.1z"/>
		<path class="st2" d="M274.4,105.9c1.9,1.2,3.3,2.8,4.2,4.9c0.9,2.1,1.3,4.5,1.2,7.2l-16.6,1.2c0.4,0.9,1.1,1.7,1.9,2.2
			c0.8,0.6,1.8,0.9,2.8,0.9c1.1,0,2-0.2,2.8-0.6c0.8-0.4,1.3-0.9,1.6-1.6l7.1,1.8c-0.5,1.5-1.3,2.9-2.4,4c-1.2,1.2-2.5,2.1-4.2,2.8
			s-3.3,1-5,1c-2.4,0-4.5-0.6-6.5-1.8c-2-1.2-3.6-2.8-4.7-4.9c-1.2-2-1.7-4.3-1.7-6.7c0-2.4,0.6-4.5,1.7-6.4
			c1.1-1.8,2.6-3.3,4.5-4.3c1.9-1,4.1-1.5,6.5-1.5C270.3,104.2,272.5,104.8,274.4,105.9z M264.7,111.2c-0.8,0.6-1.3,1.5-1.7,2.5
			l8.6-0.8c-0.2-0.8-0.7-1.5-1.5-2s-1.6-0.7-2.6-0.7C266.4,110.3,265.5,110.6,264.7,111.2z"/>
		<path class="st2" d="M300,105.2c1.2,0.7,2.2,1.5,2.9,2.5l-3.2,7.4c-0.6-0.6-1.1-1.1-1.7-1.4c-0.5-0.3-1.1-0.4-1.8-0.4
			c-1.7,0-2.9,0.5-3.6,1.4c-0.7,0.9-1.1,2.3-1.3,4.2V129l-9.5,0.1l0.4-24.2l8.3-0.2l0.4,1.6c0.7-0.7,1.4-1.2,2.3-1.6
			c0.9-0.4,1.8-0.6,2.8-0.6C297.5,104.2,298.8,104.6,300,105.2z"/>
	</g>
</g>
</svg>
